<svg width="222" height="40" viewBox="0 0 222 40" fill="none" xmlns="http://www.w3.org/2000/svg">
<g id="Group 1000001824">
<g id="Group">
<path id="Vector" d="M1.9397 7.81109C6.18944 2.31529 13.3609 -0.729197 20.2954 0.149846C29.965 0.943128 38.1845 9.69782 38.2204 19.3744C38.8234 29.9873 29.362 39.6996 18.8023 39.9783C16.1318 40.0284 12.8799 40.1356 11.0063 37.8701C9.35521 36.0477 10.0659 33.1961 11.559 31.5095C13.8562 28.7009 17.5173 27.7718 20.4821 25.9136C22.0255 26.1209 23.533 26.5354 24.9543 27.1572C25.4856 26.6212 26.024 26.078 26.5552 25.5349C27.3089 26.028 28.0555 26.5211 28.8093 27.0142C30.5967 26.7427 32.3699 26.3925 34.1286 25.9994C33.5184 24.42 33.7338 22.7905 34.5378 21.3326C33.8917 20.6108 33.2528 19.889 32.6426 19.1314C31.1495 18.9742 29.642 18.8599 28.1416 18.7527C27.6535 17.8593 27.1654 16.9589 26.6916 16.0512C25.3779 17.1447 23.6191 16.673 22.0757 16.6515C22.8725 15.6153 23.9493 14.7505 24.5021 13.5427C24.8897 10.8198 21.2143 11.7418 19.5704 11.5417C19.6206 9.39766 17.6322 8.51861 16.017 7.67531C15.6724 7.93973 14.9832 8.47573 14.6387 8.74731C14.2582 8.50432 13.4973 8.02549 13.1168 7.78251C12.7507 8.12555 12.0113 8.79733 11.638 9.13323C8.85271 7.12501 5.14854 8.24704 1.9397 7.81109Z" fill="#383DE3"/>
<path id="Vector_2" d="M0.855713 23.5269C1.88226 24.0772 3.31798 24.8633 2.85855 26.2855C1.20747 26.7429 1.19311 24.5488 0.855713 23.5269Z" fill="#383DE3"/>
<path id="Vector_3" d="M14.0285 26.6282C16.0385 26.328 14.3803 28.7793 13.1671 28.0789C12.04 27.6644 13.3322 26.5495 14.0285 26.6282Z" fill="#383DE3"/>
<path id="Vector_4" d="M6.62738 28.7508C8.17078 28.3005 9.77161 28.0647 11.2432 27.3857C10.5828 29.2653 8.97479 30.4517 7.23038 31.2807C6.71352 30.6232 5.54341 29.4726 6.62738 28.7508Z" fill="#383DE3"/>
<path id="Vector_5" d="M1.31519 31.4523C2.63605 31.2308 3.95692 30.9878 5.27778 30.752C5.77311 32.5815 6.08179 34.4539 6.16075 36.3478C4.28713 34.9899 2.66477 33.3248 1.31519 31.4523Z" fill="#383DE3"/>
</g>
<g id="Group 1000001823">
<path id="Vector_6" d="M193.237 32.9033C194.723 32.9462 196.201 32.9748 197.687 33.0534C197.163 33.2392 196.108 33.6037 195.584 33.7895C195.448 35.5547 196.151 37.6845 194.78 39.1138C194.651 37.3128 194.665 35.5047 194.68 33.6966L193.244 33.668V32.9033H193.237Z" fill="black"/>
<g id="Group_2">
<path id="Vector_7" d="M51.3441 36.4192C50.7052 33.9179 53.1459 32.3599 55.4072 32.8244L55.4431 33.4891C54.4812 33.7606 53.3398 33.732 52.586 34.4753C52.5142 35.5759 52.0979 37.2053 53.39 37.7699C53.8997 37.8485 54.9191 37.9986 55.4359 38.0701L55.4216 38.799C53.67 38.9563 51.459 38.5703 51.3441 36.4192Z" fill="black"/>
<path id="Vector_8" d="M149.684 36.3478C149.095 33.8536 151.536 32.3742 153.769 32.8244V33.4891C152.764 33.7678 151.759 34.0322 150.739 34.2609C151.026 35.3973 150.438 37.1339 151.744 37.77C152.247 37.8486 153.252 37.9986 153.761 38.0773L153.783 38.7919C152.003 38.9635 149.763 38.5489 149.684 36.3478Z" fill="black"/>
</g>
<path id="Vector_9" d="M57.1707 38.6561C57.5153 36.6479 56.3236 33.9393 58.2403 32.5171C58.3193 34.3252 58.2906 36.1333 58.2834 37.9414C58.8361 37.9414 59.9273 37.9414 60.48 37.9486L60.4442 38.7347C59.353 38.6847 58.2619 38.6561 57.1707 38.6561Z" fill="black"/>
<path id="Vector_10" d="M61.9026 32.5889C63.367 33.0391 63.0655 34.6543 63.1301 35.8335C63.0512 37.0127 63.3742 38.6135 61.9026 39.0423C61.8524 36.8912 61.8452 34.74 61.9026 32.5889Z" fill="black"/>
<path id="Vector_11" d="M64.9394 32.6602C66.7054 33.3963 67.2868 35.3259 68.2488 36.8052C68.2703 35.5188 68.2846 34.2324 68.3134 32.946L69.0671 32.9317C69.0671 34.9971 69.0887 37.0625 69.0312 39.1279C67.8683 38.0273 66.9064 36.7409 66.0593 35.3902C66.0449 36.4765 66.0234 37.5628 66.0018 38.6419C65.7219 38.6348 65.1691 38.6205 64.8892 38.6133C64.9035 36.6266 64.8892 34.6469 64.9394 32.6602Z" fill="black"/>
<path id="Vector_12" d="M71.1848 32.9243L71.9888 32.9672C71.9816 34.8754 71.9816 36.7835 71.9888 38.6917H71.1848V32.9243Z" fill="black"/>
<path id="Vector_13" d="M74.1927 33.8892C74.9536 32.6742 76.5473 33.0244 77.7461 32.7886L77.7246 33.4889C76.7698 33.7891 75.6499 33.832 74.9034 34.5824C74.5803 35.7544 75.0613 36.8836 75.4992 37.9485C76.0878 37.9485 77.2651 37.9413 77.8538 37.9342L77.7892 38.8347C76.5832 38.5702 74.889 39.0419 74.207 37.7126C73.6399 36.5263 73.6471 35.0755 74.1927 33.8892Z" fill="black"/>
<path id="Vector_14" d="M79.1031 39.0562C80.022 37.048 79.6703 33.8034 81.9028 32.7886C82.3766 33.8463 82.8073 34.9183 83.2021 36.0189C82.8073 35.9474 82.0248 35.8188 81.6372 35.7473L81.831 34.0535C81.4362 34.8397 81.0486 35.633 80.6322 36.4119C81.6803 36.4405 82.7283 36.4763 83.7836 36.5191C83.7764 37.1409 83.7693 38.3773 83.7693 38.9919C83.0011 38.2129 82.2043 37.3767 81.0557 37.2338C80.4312 37.877 79.7851 38.4845 79.1031 39.0562Z" fill="black"/>
<path id="Vector_15" d="M85.5432 32.9316L86.34 32.9602C86.3329 34.6111 86.3329 36.2691 86.3257 37.9272C86.8928 37.9415 88.027 37.9629 88.5941 37.9772L88.5654 38.6704H85.5432V32.9316Z" fill="black"/>
<path id="Vector_16" d="M92.5332 33.5678C93.6459 33.1033 94.8232 32.846 96.0364 32.8389C95.4046 33.1605 94.1412 33.8037 93.5095 34.1324C94.5289 34.9543 95.7564 34.7399 96.9337 34.5255L98.5417 35.1544C98.233 35.3759 97.6085 35.819 97.2926 36.0406C97.1778 37.3699 96.6609 39.1994 94.9093 38.7635C92.6983 39.2852 92.2461 36.8482 93.1147 35.3545C92.9208 34.7542 92.727 34.161 92.5332 33.5678ZM93.9474 35.7118C93.5669 36.548 93.5238 38.0774 94.8519 37.9487C96.1153 38.3132 96.1225 36.5766 96.5317 35.8548L93.9474 35.7118Z" fill="black"/>
<path id="Vector_17" d="M102.075 32.8604C103.36 32.9318 104.666 32.9604 105.915 33.3463C104.752 33.6536 103.596 33.9967 102.455 34.354C103.173 34.6184 104.616 35.1473 105.334 35.4117C104.688 35.7691 104.034 36.1192 103.381 36.4694C103.23 37.4628 103.194 38.6063 102.118 39.0851C102.039 37.0126 102.075 34.9329 102.075 32.8604Z" fill="black"/>
<path id="Vector_18" d="M106.045 38.9634C106.942 36.9195 106.548 33.582 109.031 32.6958C109.699 34.7898 110.352 36.8981 110.876 39.0421C109.613 37.2625 107.337 37.0338 106.045 38.9634ZM107.947 35.3615C107.639 36.3335 107.983 36.6837 108.981 36.4192C109.326 35.4115 108.981 35.0542 107.947 35.3615Z" fill="black"/>
<path id="Vector_19" d="M112.197 32.7171C113.985 32.7814 114.107 34.7753 114.717 36.026C115.069 34.6181 116.009 33.4961 117.064 32.5312C116.842 34.6181 118.658 37.6483 116.483 39.0776C116.425 37.7555 116.411 36.4405 116.454 35.1183C115.851 36.0903 115.148 37.0051 114.695 38.0556C114.509 37.6697 114.143 36.8979 113.956 36.512C113.733 36.1975 113.281 35.5686 113.059 35.2541C112.872 36.2332 112.793 37.2266 112.728 38.22L112.211 39.1634C112.046 37.0194 112.14 34.8682 112.197 32.7171Z" fill="black"/>
<g id="Group_3">
<path id="Vector_20" d="M119.338 32.9818C119.69 32.9604 120.393 32.9318 120.745 32.9175C120.738 34.8471 120.738 36.7767 120.745 38.7063C120.393 38.692 119.683 38.6706 119.331 38.6563C119.338 36.7624 119.338 34.8685 119.338 32.9818Z" fill="black"/>
<path id="Vector_21" d="M185.374 32.9747C185.726 32.9604 186.436 32.9461 186.788 32.939C186.781 34.8543 186.781 36.7696 186.788 38.692C186.436 38.692 185.733 38.692 185.381 38.692C185.388 36.7839 185.381 34.8829 185.374 32.9818V32.9747Z" fill="black"/>
</g>
<g id="Group_4">
<path id="Vector_22" d="M122.289 32.9531C122.605 32.9603 123.244 32.9817 123.56 32.996C123.56 34.6397 123.553 36.2835 123.546 37.9272C124.106 37.9344 125.211 37.9487 125.764 37.9558V38.6919C124.601 38.6991 123.438 38.6919 122.268 38.6919C122.282 36.7766 122.282 34.8613 122.289 32.9531Z" fill="black"/>
<path id="Vector_23" d="M168.218 32.9816C168.534 32.9744 169.173 32.9673 169.489 32.9673C169.503 34.6253 169.511 36.2833 169.503 37.9414C170.063 37.9414 171.176 37.9485 171.729 37.9557L171.707 38.6846H168.226C168.233 36.7836 168.226 34.8826 168.226 32.9816H168.218Z" fill="black"/>
</g>
<path id="Vector_24" d="M125.728 32.6603C126.884 33.1963 127.968 34.0325 128.205 35.3546C128.743 34.3184 129.152 33.0534 130.372 32.5889C129.418 34.6757 128.607 36.8269 128.406 39.1352C127.135 37.1413 126.991 34.6757 125.728 32.6603Z" fill="black"/>
<path id="Vector_25" d="M134.377 32.8315C135.633 32.9673 138.038 32.5171 138.009 34.411C138.483 35.9761 136.817 36.5121 135.654 36.8194C135.482 37.6841 135.231 38.5632 134.448 39.0849C134.341 36.9981 134.369 34.9112 134.377 32.8315ZM135.418 33.9393C134.369 34.8469 135.913 36.6121 136.875 35.5044C137.959 34.6111 136.372 32.8387 135.418 33.9393Z" fill="black"/>
<g id="Group_5">
<path id="Vector_26" d="M140.151 32.7461C141.228 32.9248 142.319 33.082 143.367 33.425C142.613 33.5251 141.12 33.7395 140.366 33.8467C141.113 34.7829 141.974 35.6548 143.18 35.9835C142.929 36.8626 142.994 37.9918 142.132 38.5635C141.221 38.685 140.309 38.7636 139.397 38.8065V38.0561C139.928 37.9846 141.005 37.8274 141.544 37.7488C142.814 36.3909 140.115 35.4833 139.189 34.9616C139.598 34.2612 139.921 33.5251 140.151 32.7461Z" fill="black"/>
<path id="Vector_27" d="M188.872 32.7246C189.978 32.9033 191.083 33.1391 192.182 33.3893C191.435 33.5036 189.935 33.7394 189.181 33.8538C189.92 34.79 190.796 35.6476 191.988 35.9764C191.751 36.8482 191.801 37.956 190.99 38.5492C190.057 38.6778 189.131 38.7636 188.19 38.8136L188.219 38.0775C189.274 38.0775 190.2 37.7702 190.99 37.1556C190.179 36.2908 189.181 35.6405 188.305 34.8543C188.42 34.1254 188.607 33.4178 188.872 32.7246Z" fill="black"/>
</g>
<path id="Vector_28" d="M144.178 32.6172C145.233 33.1746 146.403 33.7678 146.576 35.1042C147.028 33.9822 147.875 33.1175 148.98 32.6243C147.983 34.5111 147.294 36.5407 147.114 38.6776H146.109C145.886 36.5407 145.212 34.4968 144.178 32.6172Z" fill="black"/>
<path id="Vector_29" d="M156.512 39.0922C155.019 37.4699 154.933 34.0895 156.555 32.5029C156.591 33.1533 156.648 34.4468 156.684 35.0972H158.773C158.773 34.554 158.78 33.4677 158.78 32.9246L159.836 32.946C159.836 34.8542 159.843 36.7624 159.843 38.6705L158.816 38.7348C158.766 38.1488 158.651 36.9768 158.594 36.3836L158.551 35.9048C158.134 35.8976 157.309 35.8905 156.892 35.8833L156.842 36.3621C156.763 37.0482 156.598 38.4132 156.512 39.0922Z" fill="black"/>
<path id="Vector_30" d="M163.044 38.6632C160.955 37.2482 161.45 34.4181 162.936 32.7529C164.092 32.953 165.599 32.7386 166.267 33.9393C167.76 36.1119 165.915 39.8067 163.044 38.6632ZM163.08 33.7678C162.936 35.1399 162.957 36.5192 163.108 37.8914C163.647 37.8914 164.716 37.8842 165.255 37.8842C165.434 36.4978 165.434 35.097 165.255 33.7034C164.709 33.7249 163.625 33.7535 163.08 33.7678Z" fill="black"/>
<path id="Vector_31" d="M173.171 33.775C173.824 32.5029 175.425 32.8388 176.56 33.1103C178.203 34.5254 177.5 36.9838 176.761 38.699C175.763 38.699 174.758 38.7276 173.76 38.7919C172.819 37.334 171.951 35.3544 173.171 33.775ZM176.05 38.1345C176.574 36.6122 176.595 35.0328 176.086 33.5034C172.963 33.0317 172.942 38.5132 176.05 38.1345Z" fill="black"/>
<path id="Vector_32" d="M180.481 33.0534C181.378 32.9391 182.283 32.8604 183.202 32.8247V33.5465C181.83 33.5751 179.799 33.9539 180.28 35.812C179.878 37.2771 181.321 37.7988 182.405 38.199C182.448 37.4558 182.52 35.9692 182.555 35.2331C183.876 35.8835 183.604 37.42 183.826 38.6064C182.441 38.5349 180.51 39.321 179.663 37.8202C178.6 36.3695 178.88 34.0253 180.481 33.0534Z" fill="black"/>
<path id="Vector_33" d="M113.057 35.2544C113.28 35.5688 113.732 36.1978 113.954 36.5122C114.155 37.6271 113.746 38.1917 112.727 38.2203C112.792 37.2269 112.871 36.2335 113.057 35.2544Z" fill="black"/>
<path id="Vector_34" d="M156.89 35.8833C157.306 35.8833 158.132 35.8976 158.548 35.9047L158.591 36.3836C158.283 36.4836 157.658 36.6694 157.349 36.7695L156.84 36.3621L156.89 35.8833Z" fill="black"/>
<g id="Dr. Dean Howell">
<path id="Vector_35" d="M219.066 11.0314C219.066 10.3802 219.054 9.8133 219.031 9.33064C219.016 8.84031 218.993 8.41894 218.963 8.06652C218.94 7.7141 218.905 7.41914 218.859 7.18164C218.821 6.94414 218.779 6.74494 218.733 6.58405V6.53809H221.384V6.58405C221.338 6.74494 221.296 6.94414 221.258 7.18164C221.219 7.41914 221.185 7.7141 221.154 8.06652C221.124 8.41894 221.101 8.84031 221.086 9.33064C221.07 9.8133 221.063 10.3802 221.063 11.0314V19.2252C221.063 19.8764 221.07 20.4472 221.086 20.9375C221.101 21.4202 221.124 21.8377 221.154 22.1902C221.185 22.5426 221.219 22.8375 221.258 23.075C221.296 23.3125 221.338 23.5117 221.384 23.6726V23.7186H218.733V23.6726C218.779 23.5117 218.821 23.3125 218.859 23.075C218.905 22.8375 218.94 22.5426 218.963 22.1902C218.993 21.8377 219.016 21.4202 219.031 20.9375C219.054 20.4472 219.066 19.8764 219.066 19.2252V11.0314Z" fill="black"/>
<path id="Vector_36" d="M213.397 11.0314C213.397 10.3802 213.385 9.8133 213.362 9.33064C213.347 8.84031 213.324 8.41894 213.294 8.06652C213.271 7.7141 213.236 7.41914 213.19 7.18164C213.152 6.94414 213.11 6.74494 213.064 6.58405V6.53809H215.715V6.58405C215.669 6.74494 215.627 6.94414 215.589 7.18164C215.55 7.41914 215.516 7.7141 215.485 8.06652C215.455 8.41894 215.432 8.84031 215.417 9.33064C215.401 9.8133 215.394 10.3802 215.394 11.0314V19.2252C215.394 19.8764 215.401 20.4472 215.417 20.9375C215.432 21.4202 215.455 21.8377 215.485 22.1902C215.516 22.5426 215.55 22.8375 215.589 23.075C215.627 23.3125 215.669 23.5117 215.715 23.6726V23.7186H213.064V23.6726C213.11 23.5117 213.152 23.3125 213.19 23.075C213.236 22.8375 213.271 22.5426 213.294 22.1902C213.324 21.8377 213.347 21.4202 213.362 20.9375C213.385 20.4472 213.397 19.8764 213.397 19.2252V11.0314Z" fill="black"/>
<path id="Vector_37" d="M205.732 23.9256C204.883 23.9256 204.087 23.7916 203.345 23.5234C202.603 23.2553 201.956 22.8645 201.405 22.3512C200.855 21.8303 200.419 21.1905 200.097 20.4321C199.784 19.6659 199.627 18.7926 199.627 17.8119C199.627 16.9462 199.772 16.1456 200.063 15.4101C200.353 14.6669 200.755 14.0234 201.268 13.4794C201.78 12.9355 202.377 12.5103 203.058 12.2038C203.746 11.8974 204.489 11.7441 205.284 11.7441C206.072 11.7441 206.803 11.882 207.476 12.1579C208.149 12.426 208.731 12.8206 209.22 13.3415C209.718 13.8548 210.108 14.4946 210.391 15.2607C210.681 16.0192 210.838 16.8849 210.861 17.8579C209.997 17.8425 209.132 17.8311 208.268 17.8234C207.403 17.8157 206.504 17.8119 205.571 17.8119C204.905 17.8119 204.255 17.8157 203.62 17.8234C202.993 17.8311 202.427 17.8425 201.922 17.8579C201.968 18.6546 202.09 19.3748 202.289 20.0184C202.496 20.6619 202.775 21.2135 203.127 21.6732C203.486 22.1252 203.919 22.4738 204.423 22.719C204.936 22.9641 205.514 23.0867 206.156 23.0867C206.6 23.0867 207.017 23.0369 207.407 22.9373C207.805 22.8301 208.165 22.6845 208.486 22.5006C208.807 22.3168 209.094 22.1022 209.347 21.8571C209.599 21.6043 209.813 21.3323 209.989 21.0411L210.127 21.1101L209.278 23.1557C208.865 23.3702 208.371 23.5541 207.797 23.7073C207.224 23.8529 206.535 23.9256 205.732 23.9256ZM204.205 16.9155C204.97 16.9155 205.736 16.9155 206.501 16.9155C207.273 16.9079 207.973 16.8925 208.601 16.8696C208.532 16.203 208.402 15.6054 208.21 15.0768C208.019 14.5482 207.774 14.1 207.476 13.7323C207.178 13.3645 206.826 13.081 206.42 12.8818C206.015 12.6827 205.567 12.5831 205.078 12.5831C204.634 12.5831 204.225 12.6827 203.85 12.8818C203.482 13.0734 203.161 13.353 202.886 13.7208C202.61 14.0885 202.388 14.5405 202.22 15.0768C202.052 15.6054 201.952 16.2107 201.922 16.8925C202.266 16.9079 202.629 16.9155 203.012 16.9155C203.395 16.9155 203.792 16.9155 204.205 16.9155Z" fill="black"/>
<path id="Vector_38" d="M190.687 13.0079L193.751 20.7306L196.31 14.3295C196.364 14.1916 196.425 14.0384 196.494 13.8698C196.563 13.6936 196.624 13.5174 196.677 13.3412C196.731 13.1573 196.777 12.985 196.815 12.8241C196.853 12.6555 196.872 12.5061 196.872 12.3759C196.872 12.2763 196.865 12.1958 196.849 12.1346C196.834 12.0656 196.819 12.0196 196.804 11.9967V11.9507H198.869V11.9967C198.731 12.1422 198.563 12.3835 198.364 12.7206C198.173 13.0501 197.943 13.5327 197.676 14.1686L193.602 23.8794H192.948L189.987 16.6854L187.026 23.8794H186.372L182.608 14.7317C182.471 14.3946 182.321 14.0729 182.161 13.7664C182.008 13.4523 181.859 13.1727 181.713 12.9275C181.575 12.6823 181.453 12.4793 181.346 12.3184C181.239 12.1499 181.166 12.0426 181.128 11.9967V11.9507H184.18V11.9967C184.165 12.035 184.154 12.0924 184.146 12.169C184.138 12.2456 184.135 12.3146 184.135 12.3759C184.135 12.6134 184.169 12.8777 184.238 13.1688C184.314 13.4523 184.437 13.8086 184.605 14.2376L187.164 20.7306L190.251 13.0079H190.687Z" fill="black"/>
<path id="Vector_39" d="M167.839 17.8119C167.839 16.9462 168 16.1456 168.321 15.4101C168.642 14.6669 169.082 14.0234 169.641 13.4794C170.207 12.9355 170.872 12.5103 171.637 12.2038C172.402 11.8974 173.225 11.7441 174.105 11.7441C174.969 11.7441 175.78 11.8897 176.537 12.1808C177.302 12.4643 177.968 12.8704 178.534 13.399C179.1 13.9276 179.544 14.5712 179.865 15.3296C180.194 16.0881 180.359 16.9385 180.359 17.8809C180.359 18.67 180.221 19.4284 179.946 20.1563C179.67 20.8841 179.265 21.5276 178.729 22.0869C178.194 22.6462 177.536 23.0944 176.755 23.4315C175.983 23.7609 175.091 23.9256 174.082 23.9256C173.225 23.9256 172.418 23.7839 171.66 23.5004C170.903 23.217 170.241 22.8109 169.675 22.2823C169.109 21.7537 168.661 21.1139 168.332 20.3631C168.003 19.6047 167.839 18.7542 167.839 17.8119ZM174.346 23.0867C174.889 23.0867 175.386 22.9795 175.837 22.7649C176.296 22.5504 176.69 22.2401 177.019 21.8341C177.348 21.428 177.605 20.9339 177.788 20.3516C177.972 19.7694 178.064 19.1105 178.064 18.375C178.064 17.5476 177.976 16.7815 177.8 16.0766C177.624 15.3641 177.36 14.7512 177.008 14.2379C176.664 13.7169 176.228 13.3109 175.7 13.0197C175.172 12.7286 174.556 12.5831 173.852 12.5831C173.309 12.5831 172.812 12.6903 172.36 12.9048C171.909 13.1117 171.515 13.4143 171.178 13.8127C170.849 14.2111 170.593 14.7014 170.409 15.2837C170.226 15.8583 170.134 16.5133 170.134 17.2488C170.134 18.0762 170.222 18.8462 170.398 19.5587C170.582 20.2712 170.849 20.8918 171.201 21.4204C171.553 21.9414 171.989 22.3512 172.509 22.65C173.037 22.9412 173.649 23.0867 174.346 23.0867Z" fill="black"/>
<path id="Vector_40" d="M162.962 15.8353C162.656 15.8276 162.273 15.8238 161.814 15.8238C161.355 15.8161 160.854 15.8084 160.311 15.8008C159.775 15.7931 159.213 15.7893 158.624 15.7893C158.043 15.7816 157.473 15.7778 156.914 15.7778C156.356 15.7701 155.824 15.7701 155.319 15.7778C154.814 15.7855 154.374 15.7969 153.999 15.8123V19.2254C153.999 19.8766 154.007 20.4474 154.022 20.9377C154.045 21.4204 154.068 21.8379 154.091 22.1903C154.122 22.5427 154.156 22.8377 154.195 23.0752C154.24 23.3127 154.286 23.5119 154.332 23.6728V23.7188H151.578V23.6728C151.624 23.5119 151.666 23.3127 151.704 23.0752C151.75 22.8377 151.789 22.5427 151.819 22.1903C151.85 21.8379 151.873 21.4204 151.888 20.9377C151.903 20.4474 151.911 19.8766 151.911 19.2254V11.7441C151.911 11.0929 151.903 10.526 151.888 10.0433C151.873 9.55298 151.85 9.1316 151.819 8.77918C151.789 8.4191 151.75 8.12031 151.704 7.88281C151.666 7.64531 151.624 7.44611 151.578 7.28523V7.23926H154.332V7.28523C154.286 7.44611 154.24 7.64531 154.195 7.88281C154.156 8.12031 154.122 8.4191 154.091 8.77918C154.068 9.1316 154.045 9.55298 154.022 10.0433C154.007 10.526 153.999 11.0929 153.999 11.7441V14.6861C154.397 14.7014 154.849 14.7129 155.354 14.7205C155.859 14.7205 156.386 14.7205 156.937 14.7205C157.488 14.7129 158.047 14.7052 158.613 14.6975C159.186 14.6899 159.737 14.6822 160.265 14.6746C160.801 14.6592 161.298 14.6439 161.757 14.6286C162.224 14.6133 162.625 14.598 162.962 14.5826V11.7441C162.962 11.0929 162.95 10.526 162.927 10.0433C162.912 9.55298 162.889 9.1316 162.859 8.77918C162.836 8.4191 162.801 8.12031 162.755 7.88281C162.717 7.64531 162.675 7.44611 162.629 7.28523V7.23926H165.383V7.28523C165.337 7.44611 165.291 7.64531 165.246 7.88281C165.207 8.12031 165.173 8.4191 165.142 8.77918C165.112 9.1316 165.089 9.55298 165.073 10.0433C165.058 10.526 165.05 11.0929 165.05 11.7441V19.2254C165.05 19.8766 165.058 20.4474 165.073 20.9377C165.089 21.4204 165.112 21.8379 165.142 22.1903C165.173 22.5427 165.207 22.8377 165.246 23.0752C165.291 23.3127 165.337 23.5119 165.383 23.6728V23.7188H162.629V23.6728C162.675 23.5119 162.717 23.3127 162.755 23.0752C162.801 22.8377 162.836 22.5427 162.859 22.1903C162.889 21.8379 162.912 21.4204 162.927 20.9377C162.95 20.4474 162.962 19.8766 162.962 19.2254V15.8353Z" fill="black"/>
<path id="Vector_41" d="M139.196 15.9732C139.196 14.9619 138.993 14.2188 138.587 13.7438C138.182 13.2688 137.639 13.0313 136.958 13.0313C136.713 13.0313 136.438 13.0849 136.132 13.1922C135.826 13.2918 135.512 13.4297 135.191 13.6059C134.869 13.7744 134.548 13.9736 134.227 14.2035C133.905 14.4333 133.603 14.6785 133.32 14.9389L133.297 16.4444V19.2255C133.297 19.8767 133.305 20.4474 133.32 20.9378C133.335 21.4204 133.358 21.838 133.389 22.1904C133.42 22.5428 133.454 22.8378 133.492 23.0753C133.531 23.3128 133.573 23.512 133.619 23.6728V23.7188H130.968V23.6728C131.014 23.512 131.056 23.3128 131.094 23.0753C131.14 22.8378 131.174 22.5428 131.197 22.1904C131.228 21.838 131.251 21.4204 131.266 20.9378C131.289 20.4474 131.3 19.8767 131.3 19.2255V16.4444C131.3 15.7932 131.289 15.2262 131.266 14.7436C131.251 14.2533 131.228 13.8319 131.197 13.4795C131.174 13.127 131.14 12.8321 131.094 12.5946C131.056 12.3571 131.014 12.1579 130.968 11.997V11.951H133.619V11.997C133.557 12.1885 133.508 12.4337 133.469 12.7325C133.439 13.0236 133.404 13.4067 133.366 13.8817C133.68 13.6212 134.016 13.3607 134.376 13.1002C134.743 12.8397 135.122 12.6099 135.512 12.4107C135.902 12.2039 136.3 12.0391 136.705 11.9166C137.111 11.7863 137.509 11.7212 137.899 11.7212C138.496 11.7212 139.001 11.8246 139.414 12.0315C139.834 12.2383 140.175 12.5103 140.435 12.8474C140.703 13.1845 140.894 13.5714 141.009 14.0081C141.131 14.4371 141.192 14.8738 141.192 15.3182V19.2255C141.192 19.8767 141.2 20.4474 141.215 20.9378C141.231 21.4204 141.254 21.838 141.284 22.1904C141.315 22.5428 141.349 22.8378 141.387 23.0753C141.426 23.3128 141.468 23.512 141.514 23.6728V23.7188H138.863V23.6728C138.909 23.512 138.951 23.3128 138.989 23.0753C139.035 22.8378 139.069 22.5428 139.092 22.1904C139.123 21.838 139.146 21.4204 139.161 20.9378C139.184 20.4474 139.196 19.8767 139.196 19.2255V15.9732Z" fill="black"/>
<path id="Vector_42" d="M118.218 20.3287C118.218 19.7234 118.341 19.1986 118.585 18.7543C118.838 18.3099 119.171 17.9307 119.584 17.6166C119.997 17.3025 120.467 17.0496 120.995 16.8581C121.523 16.6589 122.07 16.5057 122.636 16.3984C123.202 16.2835 123.761 16.2069 124.312 16.1686C124.862 16.1226 125.367 16.0958 125.826 16.0881V15.5021C125.826 14.9964 125.761 14.5597 125.631 14.192C125.501 13.8242 125.318 13.5216 125.081 13.2841C124.843 13.0389 124.556 12.8589 124.22 12.744C123.891 12.6214 123.527 12.5601 123.13 12.5601C122.854 12.5601 122.583 12.5831 122.315 12.6291C122.047 12.675 121.768 12.7516 121.477 12.8589C121.194 12.9662 120.892 13.1117 120.571 13.2956C120.257 13.4795 119.917 13.7131 119.549 13.9966L119.435 13.9277L120.215 12.3073C120.467 12.1924 120.716 12.1004 120.961 12.0315C121.206 11.9549 121.454 11.8936 121.707 11.8476C121.959 11.8016 122.215 11.771 122.476 11.7557C122.743 11.7327 123.023 11.7212 123.313 11.7212C124.117 11.7212 124.801 11.8208 125.367 12.02C125.941 12.2115 126.408 12.4797 126.767 12.8244C127.135 13.1615 127.402 13.5599 127.571 14.0196C127.739 14.4716 127.823 14.9581 127.823 15.4791V19.2255C127.823 19.8767 127.831 20.4474 127.846 20.9378C127.869 21.4204 127.892 21.838 127.915 22.1904C127.946 22.5428 127.98 22.8378 128.018 23.0753C128.064 23.3128 128.11 23.512 128.156 23.6728V23.7188H125.62V23.6728C125.658 23.5503 125.685 23.4124 125.7 23.2591C125.723 23.1059 125.742 22.922 125.758 22.7075C125.597 22.8454 125.406 22.9872 125.184 23.1327C124.97 23.2783 124.721 23.4124 124.438 23.5349C124.162 23.6499 123.853 23.7418 123.508 23.8108C123.172 23.8874 122.801 23.9257 122.395 23.9257C121.064 23.9257 120.035 23.6154 119.308 22.9948C118.582 22.3666 118.218 21.4779 118.218 20.3287ZM125.826 16.9845C125.13 16.9922 124.461 17.0343 123.818 17.1109C123.176 17.1799 122.606 17.3293 122.108 17.5591C121.619 17.789 121.225 18.1184 120.926 18.5474C120.636 18.9688 120.49 19.5319 120.49 20.2367C120.49 21.1408 120.716 21.8303 121.167 22.3053C121.619 22.7803 122.242 23.0178 123.038 23.0178C123.405 23.0178 123.738 22.968 124.036 22.8684C124.342 22.7611 124.61 22.6309 124.84 22.4777C125.077 22.3168 125.276 22.1444 125.436 21.9605C125.597 21.769 125.719 21.5851 125.803 21.4089C125.819 21.1178 125.826 20.796 125.826 20.4436C125.826 20.0835 125.826 19.6775 125.826 19.2255V16.9845Z" fill="black"/>
<path id="Vector_43" d="M111.539 23.9256C110.69 23.9256 109.894 23.7916 109.152 23.5234C108.41 23.2553 107.764 22.8645 107.213 22.3512C106.662 21.8303 106.226 21.1905 105.905 20.4321C105.591 19.6659 105.434 18.7926 105.434 17.8119C105.434 16.9462 105.58 16.1456 105.87 15.4101C106.161 14.6669 106.563 14.0234 107.075 13.4794C107.588 12.9355 108.185 12.5103 108.866 12.2038C109.554 11.8974 110.296 11.7441 111.092 11.7441C111.88 11.7441 112.61 11.882 113.284 12.1579C113.957 12.426 114.538 12.8206 115.028 13.3415C115.525 13.8548 115.915 14.4946 116.198 15.2607C116.489 16.0192 116.646 16.8849 116.669 17.8579C115.804 17.8425 114.94 17.8311 114.075 17.8234C113.211 17.8157 112.312 17.8119 111.379 17.8119C110.713 17.8119 110.063 17.8157 109.428 17.8234C108.8 17.8311 108.234 17.8425 107.729 17.8579C107.775 18.6546 107.898 19.3748 108.097 20.0184C108.303 20.6619 108.582 21.2135 108.934 21.6732C109.294 22.1252 109.726 22.4738 110.231 22.719C110.744 22.9641 111.321 23.0867 111.964 23.0867C112.408 23.0867 112.825 23.0369 113.215 22.9373C113.613 22.8301 113.972 22.6845 114.293 22.5006C114.615 22.3168 114.902 22.1022 115.154 21.8571C115.407 21.6043 115.621 21.3323 115.797 21.0411L115.934 21.1101L115.085 23.1557C114.672 23.3702 114.179 23.5541 113.605 23.7073C113.031 23.8529 112.343 23.9256 111.539 23.9256ZM110.013 16.9155C110.778 16.9155 111.543 16.9155 112.308 16.9155C113.081 16.9079 113.781 16.8925 114.408 16.8696C114.339 16.203 114.209 15.6054 114.018 15.0768C113.827 14.5482 113.582 14.1 113.284 13.7323C112.985 13.3645 112.633 13.081 112.228 12.8818C111.822 12.6827 111.375 12.5831 110.885 12.5831C110.441 12.5831 110.032 12.6827 109.657 12.8818C109.29 13.0734 108.969 13.353 108.693 13.7208C108.418 14.0885 108.196 14.5405 108.028 15.0768C107.859 15.6054 107.76 16.2107 107.729 16.8925C108.074 16.9079 108.437 16.9155 108.82 16.9155C109.202 16.9155 109.6 16.9155 110.013 16.9155Z" fill="black"/>
<path id="Vector_44" d="M92.0099 8.22729C91.9946 9.08536 91.9792 9.91661 91.9639 10.721C91.9563 11.0658 91.9486 11.4182 91.941 11.7783C91.941 12.1384 91.9372 12.4946 91.9295 12.8471C91.9295 13.1918 91.9257 13.5251 91.918 13.8469C91.918 14.161 91.918 14.4406 91.918 14.6858C91.918 15.1991 91.9219 15.8197 91.9295 16.5475C91.9372 17.2753 91.9448 18.0223 91.9525 18.7884C91.9678 19.5545 91.9869 20.29 92.0099 20.9949C92.0328 21.6997 92.0596 22.2858 92.0902 22.7531C92.1973 22.7685 92.3388 22.7876 92.5148 22.8106C92.6984 22.8259 92.8896 22.8413 93.0886 22.8566C93.2875 22.8642 93.4825 22.8719 93.6738 22.8796C93.8651 22.8872 94.0257 22.891 94.1558 22.891C94.6913 22.891 95.2383 22.8566 95.7968 22.7876C96.3629 22.711 96.9061 22.5731 97.4263 22.3739C97.9542 22.1747 98.4476 21.9027 98.9067 21.558C99.3733 21.2056 99.7788 20.7535 100.123 20.2019C100.475 19.6503 100.75 18.9876 100.949 18.2138C101.148 17.4324 101.248 16.513 101.248 15.4557C101.248 14.2836 101.106 13.2416 100.823 12.3299C100.54 11.4106 100.123 10.6368 99.5722 10.0085C99.0291 9.38032 98.352 8.90531 97.5411 8.58354C96.7378 8.2541 95.8121 8.08938 94.764 8.08938C94.5574 8.08938 94.3241 8.09705 94.064 8.11237C93.8039 8.12003 93.5438 8.13152 93.2836 8.14684C93.0312 8.15451 92.7902 8.16983 92.5607 8.19281C92.3388 8.20813 92.1552 8.21963 92.0099 8.22729ZM89.4967 7.19301C89.6727 7.20067 89.8371 7.20833 89.9902 7.21599C90.1202 7.22366 90.2541 7.23132 90.3918 7.23898C90.5295 7.23898 90.6404 7.23898 90.7246 7.23898C90.8699 7.23898 91.1109 7.23132 91.4475 7.21599C91.7918 7.20067 92.182 7.18535 92.6181 7.17003C93.0541 7.1547 93.5055 7.13938 93.9722 7.12406C94.4465 7.10874 94.8902 7.10107 95.3033 7.10107C96.4126 7.10107 97.4684 7.23898 98.4706 7.51479C99.4728 7.79059 100.353 8.24261 101.11 8.87084C101.867 9.49907 102.468 10.3227 102.912 11.3416C103.355 12.3606 103.577 13.6132 103.577 15.0995C103.577 16.1644 103.459 17.1221 103.221 17.9725C102.992 18.8229 102.667 19.5737 102.246 20.2249C101.825 20.8761 101.32 21.4354 100.731 21.9027C100.15 22.3624 99.5034 22.7417 98.7919 23.0404C98.0881 23.3392 97.3345 23.5576 96.5312 23.6955C95.7279 23.8334 94.8979 23.9023 94.041 23.9023C93.735 23.9023 93.364 23.8909 92.9279 23.8679C92.4995 23.8525 92.0672 23.8334 91.6312 23.8104C91.1951 23.7874 90.782 23.7644 90.3918 23.7415C90.0093 23.7261 89.7109 23.7185 89.4967 23.7185V23.6725C89.5426 23.5116 89.5847 23.3124 89.6229 23.0749C89.6688 22.8374 89.7071 22.5425 89.7377 22.19C89.7683 21.8376 89.7912 21.4201 89.8065 20.9374C89.8218 20.4471 89.8295 19.8763 89.8295 19.2251V11.7438C89.8295 11.0926 89.8218 10.5219 89.8065 10.0315C89.7912 9.53354 89.7683 9.10834 89.7377 8.75592C89.7071 8.39584 89.6688 8.09321 89.6229 7.84805C89.5847 7.60289 89.5426 7.39987 89.4967 7.23898V7.19301Z" fill="black"/>
<path id="Vector_45" d="M77.1602 22.7072C77.1602 22.5386 77.1908 22.3816 77.252 22.236C77.3208 22.0828 77.4088 21.9525 77.5159 21.8453C77.6307 21.7304 77.7607 21.6423 77.9061 21.581C78.0591 21.512 78.2197 21.4775 78.388 21.4775C78.564 21.4775 78.7247 21.512 78.87 21.581C79.023 21.6423 79.1531 21.7304 79.2602 21.8453C79.3749 21.9525 79.4629 22.0828 79.5241 22.236C79.593 22.3816 79.6274 22.5386 79.6274 22.7072C79.6274 23.0596 79.5088 23.3546 79.2717 23.5921C79.0345 23.8296 78.74 23.9483 78.388 23.9483C78.2197 23.9483 78.0591 23.9138 77.9061 23.8449C77.7607 23.7836 77.6307 23.6993 77.5159 23.5921C77.4088 23.4771 77.3208 23.3469 77.252 23.2013C77.1908 23.0481 77.1602 22.8834 77.1602 22.7072Z" fill="black"/>
<path id="Vector_46" d="M68.5315 16.4444C68.5315 15.7932 68.52 15.2262 68.4971 14.7436C68.4818 14.2533 68.4588 13.8319 68.4282 13.4795C68.4053 13.127 68.3709 12.8321 68.325 12.5946C68.2867 12.3571 68.2446 12.1579 68.1987 11.997V11.951H70.8496V11.997C70.7884 12.1732 70.7348 12.3877 70.6889 12.6405C70.6507 12.8934 70.6201 13.219 70.5971 13.6174C70.8802 13.3799 71.1747 13.1462 71.4807 12.9164C71.7868 12.6865 72.1004 12.4835 72.4217 12.3073C72.7431 12.1311 73.0682 11.9893 73.3972 11.8821C73.7338 11.7748 74.0704 11.7212 74.407 11.7212C74.6136 11.7212 74.7934 11.7327 74.9464 11.7557C75.0994 11.771 75.2371 11.7978 75.3595 11.8361C75.4819 11.8668 75.5928 11.9051 75.6923 11.951C75.7917 11.9893 75.8874 12.0276 75.9792 12.066L75.4169 14.2609L75.2218 14.2149C75.13 13.8779 74.9578 13.6097 74.7054 13.4105C74.4529 13.2037 74.1086 13.1002 73.6726 13.1002C73.4354 13.1002 73.1868 13.1424 72.9267 13.2266C72.6665 13.3109 72.4026 13.4297 72.1348 13.5829C71.8671 13.7285 71.5993 13.9008 71.3316 14.1C71.0638 14.2916 70.8037 14.4946 70.5512 14.7091C70.5359 14.9313 70.5283 15.1726 70.5283 15.4331C70.5283 15.6936 70.5283 15.9694 70.5283 16.2605V19.2255C70.5283 19.8767 70.5359 20.4474 70.5512 20.9378C70.5665 21.4204 70.5895 21.838 70.6201 22.1904C70.6507 22.5428 70.6851 22.8378 70.7234 23.0753C70.7616 23.3128 70.8037 23.512 70.8496 23.6728V23.7188H68.1987V23.6728C68.2446 23.512 68.2867 23.3128 68.325 23.0753C68.3709 22.8378 68.4053 22.5428 68.4282 22.1904C68.4588 21.838 68.4818 21.4204 68.4971 20.9378C68.52 20.4474 68.5315 19.8767 68.5315 19.2255V16.4444Z" fill="black"/>
<path id="Vector_47" d="M54.14 8.22729C54.1247 9.08536 54.1094 9.91661 54.0941 10.721C54.0864 11.0658 54.0788 11.4182 54.0711 11.7783C54.0711 12.1384 54.0673 12.4946 54.0596 12.8471C54.0596 13.1918 54.0558 13.5251 54.0482 13.8469C54.0482 14.161 54.0482 14.4406 54.0482 14.6858C54.0482 15.1991 54.052 15.8197 54.0596 16.5475C54.0673 17.2753 54.075 18.0223 54.0826 18.7884C54.0979 19.5545 54.117 20.29 54.14 20.9949C54.1629 21.6997 54.1897 22.2858 54.2203 22.7531C54.3274 22.7685 54.4689 22.7876 54.6449 22.8106C54.8285 22.8259 55.0198 22.8413 55.2187 22.8566C55.4176 22.8642 55.6127 22.8719 55.8039 22.8796C55.9952 22.8872 56.1559 22.891 56.2859 22.891C56.8214 22.891 57.3684 22.8566 57.9269 22.7876C58.493 22.711 59.0362 22.5731 59.5564 22.3739C60.0843 22.1747 60.5778 21.9027 61.0368 21.558C61.5035 21.2056 61.9089 20.7535 62.2532 20.2019C62.6051 19.6503 62.8805 18.9876 63.0794 18.2138C63.2783 17.4324 63.3778 16.513 63.3778 15.4557C63.3778 14.2836 63.2363 13.2416 62.9532 12.3299C62.6701 11.4106 62.2532 10.6368 61.7024 10.0085C61.1592 9.38032 60.4821 8.90531 59.6712 8.58354C58.8679 8.2541 57.9422 8.08938 56.8941 8.08938C56.6876 8.08938 56.4542 8.09705 56.1941 8.11237C55.934 8.12003 55.6739 8.13152 55.4138 8.14684C55.1613 8.15451 54.9203 8.16983 54.6908 8.19281C54.4689 8.20813 54.2853 8.21963 54.14 8.22729ZM51.6268 7.19301C51.8028 7.20067 51.9673 7.20833 52.1203 7.21599C52.2503 7.22366 52.3842 7.23132 52.5219 7.23898C52.6596 7.23898 52.7706 7.23898 52.8547 7.23898C53.0001 7.23898 53.2411 7.23132 53.5777 7.21599C53.9219 7.20067 54.3121 7.18535 54.7482 7.17003C55.1843 7.1547 55.6356 7.13938 56.1023 7.12406C56.5766 7.10874 57.0203 7.10107 57.4335 7.10107C58.5428 7.10107 59.5985 7.23898 60.6007 7.51479C61.6029 7.79059 62.4827 8.24261 63.2401 8.87084C63.9975 9.49907 64.598 10.3227 65.0418 11.3416C65.4855 12.3606 65.7073 13.6132 65.7073 15.0995C65.7073 16.1644 65.5888 17.1221 65.3516 17.9725C65.1221 18.8229 64.7969 19.5737 64.3762 20.2249C63.9554 20.8761 63.4505 21.4354 62.8614 21.9027C62.28 22.3624 61.6335 22.7417 60.922 23.0404C60.2182 23.3392 59.4646 23.5576 58.6613 23.6955C57.8581 23.8334 57.028 23.9023 56.1712 23.9023C55.8651 23.9023 55.4941 23.8909 55.058 23.8679C54.6296 23.8525 54.1974 23.8334 53.7613 23.8104C53.3252 23.7874 52.9121 23.7644 52.5219 23.7415C52.1394 23.7261 51.841 23.7185 51.6268 23.7185V23.6725C51.6727 23.5116 51.7148 23.3124 51.7531 23.0749C51.799 22.8374 51.8372 22.5425 51.8678 22.19C51.8984 21.8376 51.9214 21.4201 51.9367 20.9374C51.952 20.4471 51.9596 19.8763 51.9596 19.2251V11.7438C51.9596 11.0926 51.952 10.5219 51.9367 10.0315C51.9214 9.53354 51.8984 9.10834 51.8678 8.75592C51.8372 8.39584 51.799 8.09321 51.7531 7.84805C51.7148 7.60289 51.6727 7.39987 51.6268 7.23898V7.19301Z" fill="black"/>
</g>
</g>
</g>
</svg>
