<svg width="223" height="40" viewBox="0 0 223 40" fill="none" xmlns="http://www.w3.org/2000/svg">
<g id="Group 1000001821">
<g id="Group">
<path id="Vector" d="M3.24182 7.81109C7.49764 2.31529 14.6793 -0.729197 21.6238 0.149846C31.3072 0.943128 39.5385 9.69782 39.5745 19.3744C40.1783 29.9873 30.7034 39.6996 20.1285 39.9783C17.4543 40.0284 14.1977 40.1356 12.3214 37.8701C10.6679 36.0477 11.3796 33.1961 12.8749 31.5095C15.1754 28.7009 18.8417 27.7718 21.8107 25.9136C23.3563 26.1209 24.866 26.5354 26.2894 27.1572C26.8214 26.6212 27.3605 26.078 27.8925 25.5349C28.6473 26.028 29.395 26.5211 30.1498 27.0142C31.9399 26.7427 33.7155 26.3925 35.4768 25.9994C34.8657 24.42 35.0814 22.7905 35.8866 21.3326C35.2396 20.6108 34.5997 19.889 33.9887 19.1314C32.4934 18.9742 30.9837 18.8599 29.4813 18.7527C28.9924 17.8593 28.5036 16.9589 28.0291 16.0512C26.7135 17.1447 24.9523 16.673 23.4067 16.6515C24.2046 15.6153 25.2829 14.7505 25.8365 13.5427C26.2247 10.8198 22.544 11.7418 20.8977 11.5417C20.948 9.39766 18.9567 8.51861 17.3392 7.67531C16.9942 7.93973 16.304 8.47573 15.959 8.74731C15.578 8.50432 14.8159 8.02549 14.4349 7.78251C14.0683 8.12555 13.3278 8.79733 12.954 9.13323C10.1647 7.12501 6.45525 8.24704 3.24182 7.81109Z" fill="#383DE3"/>
<path id="Vector_2" d="M2.15625 23.5266C3.18426 24.0769 4.62204 24.863 4.16195 26.2852C2.50851 26.7426 2.49413 24.5486 2.15625 23.5266Z" fill="#383DE3"/>
<path id="Vector_3" d="M15.3479 26.6284C17.3608 26.3282 15.7001 28.7795 14.4852 28.0792C13.3566 27.6647 14.6506 26.5498 15.3479 26.6284Z" fill="#383DE3"/>
<path id="Vector_4" d="M7.93612 28.7508C9.48173 28.3005 11.0849 28.0647 12.5586 27.3857C11.8972 29.2653 10.2869 30.4517 8.53999 31.2807C8.02239 30.6232 6.8506 29.4726 7.93612 28.7508Z" fill="#383DE3"/>
<path id="Vector_5" d="M2.61633 31.4523C3.93909 31.2308 5.26184 30.9878 6.5846 30.752C7.08063 32.5815 7.38975 34.4539 7.46883 36.3478C5.59253 34.9899 3.96784 33.3248 2.61633 31.4523Z" fill="#383DE3"/>
</g>
<path id="Vector_6" d="M194.812 32.9031C196.301 32.946 197.782 32.9745 199.27 33.0532C198.745 33.239 197.688 33.6034 197.163 33.7893C197.027 35.5545 197.731 37.6842 196.358 39.1135C196.229 37.3126 196.243 35.5045 196.257 33.6964L194.82 33.6678V32.9031H194.812Z" fill="white"/>
<path id="Vector_7" d="M0 25.9636C0 25.9636 0.00718889 26.0279 0.00718889 26.0494V26.1137L0 25.9636Z" fill="#72574A"/>
<g id="Group_2">
<path id="Vector_8" d="M52.7168 36.4192C52.077 33.9179 54.5212 32.3599 56.7857 32.8244L56.8217 33.4891C55.8584 33.7606 54.7153 33.732 53.9605 34.4753C53.8886 35.5759 53.4716 37.2053 54.7656 37.7699C55.2761 37.8485 56.2969 37.9986 56.8145 38.0701L56.8001 38.799C55.046 38.9563 52.8318 38.5703 52.7168 36.4192Z" fill="white"/>
<path id="Vector_9" d="M151.197 36.3478C150.608 33.8536 153.052 32.3742 155.288 32.8244V33.4891C154.281 33.7678 153.275 34.0322 152.254 34.2609C152.542 35.3973 151.952 37.1339 153.261 37.77C153.764 37.8486 154.77 37.9986 155.281 38.0773L155.302 38.7919C153.519 38.9635 151.276 38.5489 151.197 36.3478Z" fill="white"/>
</g>
<path id="Vector_10" d="M58.5518 38.6561C58.8968 36.6479 57.7035 33.9393 59.6229 32.5171C59.702 34.3252 59.6732 36.1333 59.666 37.9414C60.2196 37.9414 61.3123 37.9414 61.8658 37.9486L61.8299 38.7347C60.7372 38.6847 59.6445 38.6561 58.5518 38.6561Z" fill="white"/>
<path id="Vector_11" d="M63.2905 32.5886C64.757 33.0389 64.4551 34.654 64.5198 35.8332C64.4407 37.0124 64.7642 38.6133 63.2905 39.0421C63.2402 36.8909 63.233 34.7398 63.2905 32.5886Z" fill="white"/>
<path id="Vector_12" d="M66.3316 32.6602C68.1 33.3963 68.6823 35.3259 69.6456 36.8052C69.6672 35.5188 69.6816 34.2324 69.7104 32.946L70.4652 32.9317C70.4652 34.9971 70.4868 37.0625 70.4292 39.1279C69.2646 38.0273 68.3013 36.7409 67.453 35.3902C67.4387 36.4765 67.4171 37.5628 67.3955 38.6419C67.1152 38.6348 66.5616 38.6205 66.2812 38.6133C66.2956 36.6266 66.2812 34.6469 66.3316 32.6602Z" fill="white"/>
<path id="Vector_13" d="M72.5859 32.9246L73.3911 32.9674C73.3839 34.8756 73.3839 36.7838 73.3911 38.6919H72.5859V32.9246Z" fill="white"/>
<path id="Vector_14" d="M75.5982 33.8894C76.3602 32.6745 77.9561 33.0247 79.1567 32.7888L79.1351 33.4892C78.179 33.7894 77.0575 33.8322 76.3099 34.5826C75.9864 35.7547 76.468 36.8839 76.9065 37.9487C77.496 37.9487 78.675 37.9416 79.2645 37.9344L79.1998 38.8349C77.9921 38.5705 76.2955 39.0422 75.6125 37.7129C75.0446 36.5265 75.0518 35.0758 75.5982 33.8894Z" fill="white"/>
<path id="Vector_15" d="M80.5156 39.0565C81.4358 37.0482 81.0835 33.8036 83.3193 32.7888C83.7938 33.8465 84.2251 34.9185 84.6205 36.0191C84.2251 35.9477 83.4415 35.819 83.0533 35.7475L83.2474 34.0538C82.852 34.8399 82.4638 35.6332 82.0469 36.4122C83.0964 36.4408 84.146 36.4765 85.2028 36.5194C85.1956 37.1411 85.1884 38.3775 85.1884 38.9921C84.4192 38.2132 83.6212 37.377 82.471 37.2341C81.8456 37.8773 81.1986 38.4847 80.5156 39.0565Z" fill="white"/>
<path id="Vector_16" d="M86.9648 32.9316L87.7628 32.9602C87.7556 34.6111 87.7556 36.2691 87.7484 37.9272C88.3164 37.9415 89.4522 37.9629 90.0201 37.9772L89.9914 38.6704H86.9648V32.9316Z" fill="white"/>
<path id="Vector_17" d="M93.9648 33.5678C95.0791 33.1033 96.2581 32.846 97.473 32.8389C96.8404 33.1605 95.5752 33.8037 94.9425 34.1324C95.9634 34.9543 97.1926 34.7399 98.3716 34.5255L99.9819 35.1544C99.6728 35.3759 99.0474 35.819 98.7311 36.0406C98.616 37.3699 98.0985 39.1994 96.3444 38.7635C94.1302 39.2852 93.6773 36.8482 94.5471 35.3545C94.353 34.7542 94.1589 34.161 93.9648 33.5678ZM95.381 35.7118C95 36.548 94.9569 38.0774 96.2869 37.9487C97.5521 38.3132 97.5593 36.5766 97.969 35.8548L95.381 35.7118Z" fill="white"/>
<path id="Vector_18" d="M103.52 32.8604C104.807 32.9318 106.115 32.9604 107.366 33.3463C106.201 33.6536 105.044 33.9967 103.901 34.354C104.62 34.6184 106.065 35.1473 106.784 35.4117C106.137 35.7691 105.482 36.1192 104.828 36.4694C104.677 37.4628 104.641 38.6063 103.563 39.0851C103.484 37.0126 103.52 34.9329 103.52 32.8604Z" fill="white"/>
<path id="Vector_19" d="M107.496 38.9634C108.395 36.9195 107.999 33.582 110.487 32.6958C111.155 34.7898 111.809 36.8981 112.334 39.0421C111.069 37.2625 108.79 37.0338 107.496 38.9634ZM109.401 35.3615C109.092 36.3335 109.437 36.6837 110.436 36.4192C110.781 35.4115 110.436 35.0542 109.401 35.3615Z" fill="white"/>
<path id="Vector_20" d="M113.657 32.7173C115.447 32.7816 115.569 34.7756 116.18 36.0262C116.533 34.6183 117.474 33.4963 118.531 32.5315C118.308 34.6183 120.127 37.6485 117.949 39.0779C117.891 37.7557 117.877 36.4407 117.92 35.1186C117.316 36.0905 116.612 37.0053 116.159 38.0559C115.972 37.67 115.605 36.8981 115.418 36.5122C115.195 36.1977 114.742 35.5688 114.52 35.2544C114.333 36.2335 114.254 37.2269 114.189 38.2203L113.671 39.1636C113.506 37.0196 113.599 34.8685 113.657 32.7173Z" fill="white"/>
<g id="Group_3">
<path id="Vector_21" d="M120.808 32.9818C121.16 32.9604 121.865 32.9318 122.217 32.9175C122.21 34.8471 122.21 36.7767 122.217 38.7063C121.865 38.692 121.153 38.6706 120.801 38.6563C120.808 36.7624 120.808 34.8685 120.808 32.9818Z" fill="white"/>
<path id="Vector_22" d="M186.939 32.9747C187.291 32.9604 188.003 32.9461 188.355 32.939C188.348 34.8543 188.348 36.7696 188.355 38.692C188.003 38.692 187.298 38.692 186.946 38.692C186.953 36.7839 186.946 34.8829 186.939 32.9818V32.9747Z" fill="white"/>
</g>
<g id="Group_4">
<path id="Vector_23" d="M123.764 32.9531C124.08 32.9603 124.72 32.9817 125.036 32.996C125.036 34.6397 125.029 36.2835 125.022 37.9272C125.583 37.9344 126.69 37.9487 127.243 37.9558V38.6919C126.079 38.6991 124.914 38.6919 123.742 38.6919C123.757 36.7766 123.757 34.8613 123.764 32.9531Z" fill="white"/>
<path id="Vector_24" d="M169.758 32.9818C170.075 32.9747 170.714 32.9675 171.031 32.9675C171.045 34.6256 171.052 36.2836 171.045 37.9416C171.606 37.9416 172.72 37.9488 173.274 37.9559L173.252 38.6849H169.765C169.773 36.7839 169.765 34.8828 169.765 32.9818H169.758Z" fill="white"/>
</g>
<path id="Vector_25" d="M127.207 32.6601C128.364 33.1961 129.45 34.0323 129.687 35.3544C130.226 34.3181 130.636 33.0532 131.858 32.5886C130.902 34.6755 130.09 36.8266 129.888 39.135C128.616 37.1411 128.472 34.6755 127.207 32.6601Z" fill="white"/>
<path id="Vector_26" d="M135.868 32.8315C137.126 32.9673 139.535 32.5171 139.506 34.411C139.98 35.9761 138.312 36.5121 137.148 36.8194C136.975 37.6841 136.724 38.5632 135.94 39.0849C135.832 36.9981 135.861 34.9112 135.868 32.8315ZM136.911 33.9393C135.861 34.8469 137.407 36.6121 138.37 35.5044C139.455 34.6111 137.867 32.8387 136.911 33.9393Z" fill="white"/>
<g id="Group_5">
<path id="Vector_27" d="M141.651 32.7458C142.729 32.9245 143.822 33.0817 144.871 33.4248C144.117 33.5248 142.621 33.7392 141.866 33.8464C142.614 34.7827 143.477 35.6545 144.685 35.9833C144.433 36.8623 144.498 37.9915 143.635 38.5633C142.722 38.6847 141.809 38.7634 140.896 38.8062V38.0558C141.428 37.9844 142.506 37.8271 143.045 37.7485C144.318 36.3907 141.615 35.483 140.688 34.9613C141.097 34.2609 141.421 33.5248 141.651 32.7458Z" fill="white"/>
<path id="Vector_28" d="M190.442 32.7244C191.549 32.903 192.656 33.1389 193.756 33.389C193.008 33.5034 191.506 33.7392 190.751 33.8535C191.491 34.7898 192.368 35.6474 193.562 35.9761C193.324 36.848 193.375 37.9557 192.562 38.5489C191.628 38.6776 190.701 38.7633 189.759 38.8133L189.788 38.0772C190.844 38.0772 191.772 37.7699 192.562 37.1553C191.75 36.2906 190.751 35.6402 189.874 34.8541C189.989 34.1251 190.176 33.4176 190.442 32.7244Z" fill="white"/>
</g>
<path id="Vector_29" d="M145.684 32.6172C146.74 33.1746 147.912 33.7678 148.085 35.1042C148.538 33.9822 149.386 33.1175 150.493 32.6243C149.494 34.5111 148.804 36.5407 148.624 38.6776H147.617C147.395 36.5407 146.719 34.4968 145.684 32.6172Z" fill="white"/>
<path id="Vector_30" d="M158.035 39.0922C156.54 37.4699 156.454 34.0895 158.078 32.5029C158.114 33.1533 158.172 34.4468 158.208 35.0972H160.3C160.3 34.554 160.307 33.4677 160.307 32.9246L161.364 32.946C161.364 34.8542 161.371 36.7624 161.371 38.6705L160.343 38.7348C160.293 38.1488 160.177 36.9768 160.12 36.3836L160.077 35.9048C159.66 35.8976 158.833 35.8905 158.416 35.8833L158.366 36.3621C158.287 37.0482 158.121 38.4132 158.035 39.0922Z" fill="white"/>
<path id="Vector_31" d="M164.576 38.6632C162.484 37.2482 162.98 34.4181 164.468 32.7529C165.626 32.953 167.135 32.7386 167.804 33.9393C169.299 36.1119 167.452 39.8067 164.576 38.6632ZM164.612 33.7678C164.468 35.1399 164.49 36.5192 164.641 37.8914C165.18 37.8914 166.251 37.8842 166.79 37.8842C166.97 36.4978 166.97 35.097 166.79 33.7034C166.244 33.7249 165.158 33.7535 164.612 33.7678Z" fill="white"/>
<path id="Vector_32" d="M174.718 33.775C175.372 32.5029 176.976 32.8388 178.111 33.1103C179.758 34.5254 179.053 36.9838 178.313 38.699C177.313 38.699 176.307 38.7276 175.308 38.7919C174.366 37.334 173.496 35.3544 174.718 33.775ZM177.601 38.1345C178.126 36.6122 178.147 35.0328 177.637 33.5034C174.51 33.0317 174.488 38.5132 177.601 38.1345Z" fill="white"/>
<path id="Vector_33" d="M182.038 33.0532C182.937 32.9388 183.843 32.8602 184.763 32.8245V33.5463C183.39 33.5749 181.355 33.9536 181.837 35.8118C181.434 37.2768 182.879 37.7986 183.965 38.1988C184.008 37.4555 184.08 35.969 184.116 35.2329C185.439 35.8832 185.166 37.4198 185.388 38.6061C184.001 38.5347 182.067 39.3208 181.219 37.82C180.155 36.3692 180.435 34.0251 182.038 33.0532Z" fill="white"/>
<path id="Vector_34" d="M114.518 35.2544C114.741 35.5688 115.194 36.1978 115.417 36.5122C115.618 37.6271 115.208 38.1917 114.188 38.2203C114.252 37.2269 114.331 36.2335 114.518 35.2544Z" fill="white"/>
<path id="Vector_35" d="M158.414 35.8833C158.831 35.8833 159.657 35.8976 160.074 35.9047L160.117 36.3836C159.808 36.4836 159.183 36.6694 158.874 36.7695L158.363 36.3621L158.414 35.8833Z" fill="white"/>
<g id="Dr. Dean Howell">
<path id="Vector_36" d="M220.678 11.0314C220.678 10.3802 220.667 9.8133 220.644 9.33064C220.629 8.84031 220.606 8.41894 220.575 8.06652C220.552 7.7141 220.518 7.41914 220.472 7.18164C220.433 6.94414 220.391 6.74494 220.345 6.58405V6.53809H223V6.58405C222.954 6.74494 222.912 6.94414 222.873 7.18164C222.835 7.41914 222.801 7.7141 222.77 8.06652C222.739 8.41894 222.716 8.84031 222.701 9.33064C222.686 9.8133 222.678 10.3802 222.678 11.0314V19.2252C222.678 19.8764 222.686 20.4472 222.701 20.9375C222.716 21.4202 222.739 21.8377 222.77 22.1902C222.801 22.5426 222.835 22.8375 222.873 23.075C222.912 23.3125 222.954 23.5117 223 23.6726V23.7186H220.345V23.6726C220.391 23.5117 220.433 23.3125 220.472 23.075C220.518 22.8375 220.552 22.5426 220.575 22.1902C220.606 21.8377 220.629 21.4202 220.644 20.9375C220.667 20.4472 220.678 19.8764 220.678 19.2252V11.0314Z" fill="white"/>
<path id="Vector_37" d="M215.001 11.0314C215.001 10.3802 214.99 9.8133 214.967 9.33064C214.952 8.84031 214.929 8.41894 214.898 8.06652C214.875 7.7141 214.841 7.41914 214.795 7.18164C214.756 6.94414 214.714 6.74494 214.668 6.58405V6.53809H217.323V6.58405C217.277 6.74494 217.235 6.94414 217.196 7.18164C217.158 7.41914 217.124 7.7141 217.093 8.06652C217.062 8.41894 217.039 8.84031 217.024 9.33064C217.009 9.8133 217.001 10.3802 217.001 11.0314V19.2252C217.001 19.8764 217.009 20.4472 217.024 20.9375C217.039 21.4202 217.062 21.8377 217.093 22.1902C217.124 22.5426 217.158 22.8375 217.196 23.075C217.235 23.3125 217.277 23.5117 217.323 23.6726V23.7186H214.668V23.6726C214.714 23.5117 214.756 23.3125 214.795 23.075C214.841 22.8375 214.875 22.5426 214.898 22.1902C214.929 21.8377 214.952 21.4202 214.967 20.9375C214.99 20.4472 215.001 19.8764 215.001 19.2252V11.0314Z" fill="white"/>
<path id="Vector_38" d="M207.325 23.9254C206.475 23.9254 205.678 23.7913 204.935 23.5232C204.192 23.255 203.545 22.8643 202.993 22.351C202.441 21.83 202.005 21.1903 201.683 20.4318C201.369 19.6657 201.212 18.7923 201.212 17.8117C201.212 16.9459 201.357 16.1453 201.648 15.4098C201.939 14.6667 202.342 14.0231 202.855 13.4792C203.368 12.9352 203.966 12.51 204.648 12.2036C205.337 11.8971 206.08 11.7439 206.877 11.7439C207.666 11.7439 208.398 11.8818 209.072 12.1576C209.746 12.4258 210.329 12.8203 210.819 13.3413C211.317 13.8546 211.708 14.4943 211.991 15.2604C212.282 16.0189 212.439 16.8846 212.462 17.8576C211.597 17.8423 210.731 17.8308 209.865 17.8232C208.999 17.8155 208.099 17.8117 207.165 17.8117C206.498 17.8117 205.847 17.8155 205.211 17.8232C204.583 17.8308 204.016 17.8423 203.51 17.8576C203.556 18.6544 203.679 19.3746 203.878 20.0181C204.085 20.6617 204.364 21.2133 204.717 21.673C205.077 22.125 205.51 22.4736 206.015 22.7187C206.529 22.9639 207.107 23.0865 207.751 23.0865C208.195 23.0865 208.613 23.0367 209.003 22.9371C209.402 22.8298 209.762 22.6843 210.083 22.5004C210.405 22.3165 210.693 22.102 210.945 21.8568C211.198 21.604 211.413 21.332 211.589 21.0409L211.727 21.1099L210.876 23.1554C210.463 23.3699 209.969 23.5538 209.394 23.707C208.819 23.8526 208.13 23.9254 207.325 23.9254ZM205.797 16.9153C206.563 16.9153 207.329 16.9153 208.095 16.9153C208.869 16.9076 209.57 16.8923 210.198 16.8693C210.129 16.2028 209.999 15.6052 209.808 15.0766C209.616 14.5479 209.371 14.0998 209.072 13.732C208.773 13.3643 208.421 13.0808 208.015 12.8816C207.609 12.6824 207.161 12.5828 206.67 12.5828C206.226 12.5828 205.816 12.6824 205.441 12.8816C205.073 13.0731 204.751 13.3528 204.475 13.7205C204.2 14.0883 203.977 14.5403 203.809 15.0766C203.64 15.6052 203.541 16.2104 203.51 16.8923C203.855 16.9076 204.219 16.9153 204.602 16.9153C204.985 16.9153 205.383 16.9153 205.797 16.9153Z" fill="white"/>
<path id="Vector_39" d="M192.259 13.0082L195.328 20.7308L197.89 14.3298C197.944 14.1919 198.005 14.0386 198.074 13.8701C198.143 13.6939 198.204 13.5177 198.258 13.3415C198.312 13.1576 198.358 12.9852 198.396 12.8243C198.434 12.6558 198.453 12.5064 198.453 12.3761C198.453 12.2765 198.446 12.1961 198.43 12.1348C198.415 12.0658 198.4 12.0199 198.384 11.9969V11.9509H200.453V11.9969C200.315 12.1425 200.147 12.3838 199.947 12.7209C199.756 13.0503 199.526 13.533 199.258 14.1689L195.178 23.8796H194.523L191.558 16.6856L188.593 23.8796H187.938L184.169 14.732C184.031 14.3949 183.882 14.0731 183.721 13.7667C183.567 13.4525 183.418 13.1729 183.272 12.9277C183.135 12.6826 183.012 12.4796 182.905 12.3187C182.797 12.1501 182.725 12.0429 182.686 11.9969V11.9509H185.743V11.9969C185.728 12.0352 185.716 12.0927 185.709 12.1693C185.701 12.2459 185.697 12.3148 185.697 12.3761C185.697 12.6136 185.732 12.8779 185.801 13.1691C185.877 13.4525 186 13.8088 186.168 14.2378L188.731 20.7308L191.823 13.0082H192.259Z" fill="white"/>
<path id="Vector_40" d="M169.378 17.8117C169.378 16.9459 169.539 16.1453 169.861 15.4098C170.183 14.6667 170.623 14.0231 171.183 13.4792C171.749 12.9352 172.416 12.51 173.182 12.2036C173.948 11.8971 174.772 11.7439 175.653 11.7439C176.519 11.7439 177.331 11.8895 178.089 12.1806C178.855 12.4641 179.522 12.8701 180.089 13.3987C180.656 13.9274 181.1 14.5709 181.422 15.3294C181.751 16.0879 181.916 16.9383 181.916 17.8806C181.916 18.6697 181.778 19.4282 181.502 20.156C181.227 20.8838 180.82 21.5274 180.284 22.0867C179.748 22.646 179.089 23.0941 178.308 23.4312C177.534 23.7607 176.641 23.9254 175.63 23.9254C174.772 23.9254 173.964 23.7837 173.205 23.5002C172.447 23.2167 171.784 22.8107 171.217 22.282C170.65 21.7534 170.202 21.1137 169.872 20.3629C169.543 19.6044 169.378 18.754 169.378 17.8117ZM175.894 23.0865C176.438 23.0865 176.936 22.9792 177.388 22.7647C177.848 22.5502 178.242 22.2399 178.572 21.8339C178.901 21.4278 179.158 20.9336 179.342 20.3514C179.526 19.7691 179.618 19.1103 179.618 18.3748C179.618 17.5473 179.53 16.7812 179.353 16.0764C179.177 15.3639 178.913 14.751 178.56 14.2377C178.216 13.7167 177.779 13.3106 177.25 13.0195C176.722 12.7284 176.105 12.5828 175.4 12.5828C174.856 12.5828 174.358 12.6901 173.906 12.9046C173.454 13.1114 173.06 13.4141 172.722 13.8125C172.393 14.2108 172.136 14.7012 171.952 15.2834C171.769 15.858 171.677 16.5131 171.677 17.2486C171.677 18.076 171.765 18.8459 171.941 19.5584C172.125 20.2709 172.393 20.8915 172.745 21.4201C173.098 21.9411 173.535 22.351 174.056 22.6498C174.584 22.9409 175.197 23.0865 175.894 23.0865Z" fill="white"/>
<path id="Vector_41" d="M164.494 15.835C164.188 15.8273 163.805 15.8235 163.345 15.8235C162.885 15.8159 162.384 15.8082 161.84 15.8005C161.303 15.7929 160.74 15.789 160.15 15.789C159.568 15.7814 158.997 15.7776 158.438 15.7776C157.879 15.7699 157.346 15.7699 156.841 15.7776C156.335 15.7852 155.894 15.7967 155.519 15.812V19.2251C155.519 19.8764 155.527 20.4471 155.542 20.9374C155.565 21.4201 155.588 21.8377 155.611 22.1901C155.642 22.5425 155.676 22.8375 155.714 23.075C155.76 23.3125 155.806 23.5117 155.852 23.6725V23.7185H153.094V23.6725C153.14 23.5117 153.182 23.3125 153.221 23.075C153.267 22.8375 153.305 22.5425 153.336 22.1901C153.366 21.8377 153.389 21.4201 153.405 20.9374C153.42 20.4471 153.428 19.8764 153.428 19.2251V11.7439C153.428 11.0927 153.42 10.5257 153.405 10.0431C153.389 9.55273 153.366 9.13136 153.336 8.77894C153.305 8.41886 153.267 8.12007 153.221 7.88256C153.182 7.64506 153.14 7.44587 153.094 7.28498V7.23901H155.852V7.28498C155.806 7.44587 155.76 7.64506 155.714 7.88256C155.676 8.12007 155.642 8.41886 155.611 8.77894C155.588 9.13136 155.565 9.55273 155.542 10.0431C155.527 10.5257 155.519 11.0927 155.519 11.7439V14.6858C155.917 14.7011 156.369 14.7126 156.875 14.7203C157.381 14.7203 157.909 14.7203 158.461 14.7203C159.013 14.7126 159.572 14.705 160.139 14.6973C160.713 14.6896 161.265 14.682 161.794 14.6743C162.33 14.659 162.828 14.6437 163.288 14.6284C163.755 14.613 164.157 14.5977 164.494 14.5824V11.7439C164.494 11.0927 164.483 10.5257 164.46 10.0431C164.444 9.55273 164.421 9.13136 164.391 8.77894C164.368 8.41886 164.333 8.12007 164.287 7.88256C164.249 7.64506 164.207 7.44587 164.161 7.28498V7.23901H166.919V7.28498C166.873 7.44587 166.827 7.64506 166.781 7.88256C166.743 8.12007 166.708 8.41886 166.678 8.77894C166.647 9.13136 166.624 9.55273 166.609 10.0431C166.593 10.5257 166.586 11.0927 166.586 11.7439V19.2251C166.586 19.8764 166.593 20.4471 166.609 20.9374C166.624 21.4201 166.647 21.8377 166.678 22.1901C166.708 22.5425 166.743 22.8375 166.781 23.075C166.827 23.3125 166.873 23.5117 166.919 23.6725V23.7185H164.161V23.6725C164.207 23.5117 164.249 23.3125 164.287 23.075C164.333 22.8375 164.368 22.5425 164.391 22.1901C164.421 21.8377 164.444 21.4201 164.46 20.9374C164.483 20.4471 164.494 19.8764 164.494 19.2251V15.835Z" fill="white"/>
<path id="Vector_42" d="M140.694 15.973C140.694 14.9617 140.491 14.2185 140.085 13.7435C139.679 13.2685 139.135 13.031 138.453 13.031C138.208 13.031 137.932 13.0847 137.626 13.1919C137.319 13.2915 137.005 13.4294 136.683 13.6056C136.362 13.7742 136.04 13.9734 135.718 14.2032C135.396 14.4331 135.094 14.6782 134.81 14.9387L134.787 16.4441V19.2252C134.787 19.8764 134.795 20.4472 134.81 20.9375C134.826 21.4202 134.849 21.8377 134.879 22.1901C134.91 22.5426 134.944 22.8375 134.983 23.075C135.021 23.3125 135.063 23.5117 135.109 23.6726V23.7186H132.454V23.6726C132.5 23.5117 132.542 23.3125 132.581 23.075C132.627 22.8375 132.661 22.5426 132.684 22.1901C132.715 21.8377 132.738 21.4202 132.753 20.9375C132.776 20.4472 132.788 19.8764 132.788 19.2252V16.4441C132.788 15.7929 132.776 15.226 132.753 14.7433C132.738 14.253 132.715 13.8316 132.684 13.4792C132.661 13.1268 132.627 12.8318 132.581 12.5943C132.542 12.3568 132.5 12.1576 132.454 11.9968V11.9508H135.109V11.9968C135.048 12.1883 134.998 12.4334 134.96 12.7322C134.929 13.0234 134.894 13.4064 134.856 13.8814C135.17 13.621 135.507 13.3605 135.867 13.1C136.235 12.8395 136.614 12.6097 137.005 12.4105C137.396 12.2036 137.794 12.0389 138.2 11.9163C138.606 11.7861 139.005 11.7209 139.395 11.7209C139.993 11.7209 140.499 11.8244 140.912 12.0312C141.334 12.2381 141.675 12.5101 141.935 12.8472C142.203 13.1843 142.395 13.5712 142.51 14.0079C142.632 14.4369 142.694 14.8736 142.694 15.3179V19.2252C142.694 19.8764 142.701 20.4472 142.717 20.9375C142.732 21.4202 142.755 21.8377 142.786 22.1901C142.816 22.5426 142.851 22.8375 142.889 23.075C142.927 23.3125 142.97 23.5117 143.015 23.6726V23.7186H140.361V23.6726C140.407 23.5117 140.449 23.3125 140.487 23.075C140.533 22.8375 140.568 22.5426 140.591 22.1901C140.621 21.8377 140.644 21.4202 140.66 20.9375C140.683 20.4472 140.694 19.8764 140.694 19.2252V15.973Z" fill="white"/>
<path id="Vector_43" d="M119.687 20.3284C119.687 19.7232 119.809 19.1984 120.054 18.754C120.307 18.3097 120.64 17.9304 121.054 17.6163C121.468 17.3022 121.939 17.0494 122.468 16.8579C122.996 16.6587 123.544 16.5054 124.111 16.3982C124.678 16.2833 125.237 16.2066 125.789 16.1683C126.34 16.1224 126.846 16.0956 127.306 16.0879V15.5018C127.306 14.9962 127.241 14.5595 127.11 14.1917C126.98 13.824 126.796 13.5214 126.559 13.2839C126.321 13.0387 126.034 12.8587 125.697 12.7437C125.367 12.6212 125.003 12.5599 124.605 12.5599C124.329 12.5599 124.057 12.5828 123.789 12.6288C123.521 12.6748 123.241 12.7514 122.95 12.8587C122.667 12.9659 122.364 13.1115 122.042 13.2953C121.728 13.4792 121.387 13.7129 121.02 13.9964L120.905 13.9274L121.686 12.307C121.939 12.1921 122.188 12.1002 122.433 12.0312C122.678 11.9546 122.927 11.8933 123.18 11.8474C123.433 11.8014 123.69 11.7707 123.95 11.7554C124.218 11.7324 124.498 11.7209 124.789 11.7209C125.593 11.7209 126.279 11.8205 126.846 12.0197C127.421 12.2113 127.888 12.4794 128.248 12.8242C128.616 13.1613 128.884 13.5597 129.052 14.0193C129.221 14.4714 129.305 14.9579 129.305 15.4788V19.2252C129.305 19.8764 129.313 20.4472 129.328 20.9375C129.351 21.4202 129.374 21.8377 129.397 22.1901C129.428 22.5426 129.462 22.8375 129.501 23.075C129.547 23.3125 129.593 23.5117 129.639 23.6726V23.7186H127.099V23.6726C127.137 23.55 127.164 23.4121 127.179 23.2589C127.202 23.1057 127.221 22.9218 127.237 22.7073C127.076 22.8452 126.884 22.9869 126.662 23.1325C126.448 23.278 126.199 23.4121 125.915 23.5347C125.639 23.6496 125.329 23.7416 124.984 23.8105C124.647 23.8871 124.276 23.9254 123.87 23.9254C122.537 23.9254 121.506 23.6151 120.778 22.9946C120.05 22.3663 119.687 21.4776 119.687 20.3284ZM127.306 16.9843C126.609 16.9919 125.938 17.0341 125.295 17.1107C124.651 17.1796 124.08 17.329 123.582 17.5589C123.092 17.7887 122.697 18.1181 122.399 18.5472C122.107 18.9686 121.962 19.5317 121.962 20.2365C121.962 21.1405 122.188 21.8301 122.64 22.3051C123.092 22.7801 123.716 23.0176 124.513 23.0176C124.881 23.0176 125.214 22.9678 125.513 22.8682C125.819 22.7609 126.088 22.6307 126.317 22.4774C126.555 22.3165 126.754 22.1442 126.915 21.9603C127.076 21.7688 127.198 21.5849 127.283 21.4087C127.298 21.1176 127.306 20.7958 127.306 20.4434C127.306 20.0833 127.306 19.6772 127.306 19.2252V16.9843Z" fill="white"/>
<path id="Vector_44" d="M112.998 23.9254C112.148 23.9254 111.351 23.7913 110.608 23.5232C109.865 23.255 109.217 22.8643 108.666 22.351C108.114 21.83 107.677 21.1903 107.356 20.4318C107.042 19.6657 106.885 18.7923 106.885 17.8117C106.885 16.9459 107.03 16.1453 107.321 15.4098C107.612 14.6667 108.015 14.0231 108.528 13.4792C109.041 12.9352 109.639 12.51 110.321 12.2036C111.01 11.8971 111.753 11.7439 112.55 11.7439C113.339 11.7439 114.071 11.8818 114.745 12.1576C115.419 12.4258 116.001 12.8203 116.492 13.3413C116.99 13.8546 117.381 14.4943 117.664 15.2604C117.955 16.0189 118.112 16.8846 118.135 17.8576C117.269 17.8423 116.404 17.8308 115.538 17.8232C114.672 17.8155 113.772 17.8117 112.837 17.8117C112.171 17.8117 111.52 17.8155 110.884 17.8232C110.256 17.8308 109.689 17.8423 109.183 17.8576C109.229 18.6544 109.351 19.3746 109.551 20.0181C109.758 20.6617 110.037 21.2133 110.39 21.673C110.75 22.125 111.183 22.4736 111.688 22.7187C112.201 22.9639 112.78 23.0865 113.423 23.0865C113.868 23.0865 114.285 23.0367 114.676 22.9371C115.074 22.8298 115.435 22.6843 115.756 22.5004C116.078 22.3165 116.365 22.102 116.618 21.8568C116.871 21.604 117.086 21.332 117.262 21.0409L117.4 21.1099L116.549 23.1554C116.136 23.3699 115.641 23.5538 115.067 23.707C114.492 23.8526 113.803 23.9254 112.998 23.9254ZM111.47 16.9153C112.236 16.9153 113.002 16.9153 113.768 16.9153C114.542 16.9076 115.243 16.8923 115.871 16.8693C115.802 16.2028 115.672 15.6052 115.481 15.0766C115.289 14.5479 115.044 14.0998 114.745 13.732C114.446 13.3643 114.094 13.0808 113.688 12.8816C113.282 12.6824 112.834 12.5828 112.343 12.5828C111.899 12.5828 111.489 12.6824 111.114 12.8816C110.746 13.0731 110.424 13.3528 110.148 13.7205C109.872 14.0883 109.65 14.5403 109.482 15.0766C109.313 15.6052 109.214 16.2104 109.183 16.8923C109.528 16.9076 109.892 16.9153 110.275 16.9153C110.658 16.9153 111.056 16.9153 111.47 16.9153Z" fill="white"/>
<path id="Vector_45" d="M93.4408 8.22753C93.4255 9.0856 93.4102 9.91685 93.3948 10.7213C93.3872 11.0661 93.3795 11.4185 93.3719 11.7786C93.3719 12.1386 93.368 12.4949 93.3604 12.8473C93.3604 13.1921 93.3565 13.5253 93.3489 13.8471C93.3489 14.1612 93.3489 14.4409 93.3489 14.686C93.3489 15.1993 93.3527 15.8199 93.3604 16.5477C93.368 17.2755 93.3757 18.0225 93.3834 18.7887C93.3987 19.5548 93.4178 20.2903 93.4408 20.9951C93.4638 21.7 93.4906 22.286 93.5213 22.7534C93.6285 22.7687 93.7703 22.7879 93.9465 22.8109C94.1303 22.8262 94.3219 22.8415 94.5211 22.8568C94.7203 22.8645 94.9156 22.8721 95.1072 22.8798C95.2987 22.8875 95.4596 22.8913 95.5898 22.8913C96.1261 22.8913 96.6739 22.8568 97.2332 22.7879C97.8001 22.7113 98.3441 22.5733 98.865 22.3742C99.3937 22.175 99.8878 21.903 100.347 21.5582C100.815 21.2058 101.221 20.7538 101.566 20.2022C101.918 19.6506 102.194 18.9879 102.393 18.2141C102.592 17.4326 102.692 16.5132 102.692 15.456C102.692 14.2838 102.55 13.2419 102.267 12.3302C101.983 11.4108 101.566 10.637 101.014 10.0088C100.47 9.38056 99.792 8.90556 98.9799 8.58378C98.1755 8.25435 97.2485 8.08963 96.1989 8.08963C95.992 8.08963 95.7584 8.09729 95.4979 8.11261C95.2374 8.12027 94.9769 8.13177 94.7164 8.14709C94.4636 8.15475 94.2223 8.17007 93.9924 8.19306C93.7703 8.20838 93.5864 8.21987 93.4408 8.22753ZM90.9241 7.19325C91.1003 7.20092 91.265 7.20858 91.4182 7.21624C91.5485 7.2239 91.6825 7.23156 91.8204 7.23922C91.9584 7.23922 92.0694 7.23922 92.1537 7.23922C92.2993 7.23922 92.5406 7.23156 92.8777 7.21624C93.2225 7.20092 93.6132 7.18559 94.0499 7.17027C94.4866 7.15495 94.9386 7.13962 95.4059 7.1243C95.8809 7.10898 96.3253 7.10132 96.739 7.10132C97.8499 7.10132 98.9072 7.23922 99.9108 7.51503C100.914 7.79084 101.795 8.24285 102.554 8.87108C103.312 9.49931 103.914 10.3229 104.358 11.3419C104.803 12.3608 105.025 13.6134 105.025 15.0997C105.025 16.1647 104.906 17.1223 104.668 17.9727C104.439 18.8231 104.113 19.5739 103.692 20.2252C103.27 20.8764 102.765 21.4356 102.175 21.903C101.592 22.3627 100.945 22.7419 100.233 23.0407C99.5277 23.3395 98.7731 23.5578 97.9687 23.6957C97.1642 23.8336 96.333 23.9026 95.4749 23.9026C95.1684 23.9026 94.7969 23.8911 94.3602 23.8681C93.9311 23.8528 93.4983 23.8336 93.0616 23.8107C92.6249 23.7877 92.2112 23.7647 91.8204 23.7417C91.4374 23.7264 91.1386 23.7187 90.9241 23.7187V23.6727C90.97 23.5119 91.0122 23.3127 91.0505 23.0752C91.0965 22.8377 91.1348 22.5427 91.1654 22.1903C91.196 21.8379 91.219 21.4203 91.2344 20.9377C91.2497 20.4473 91.2573 19.8766 91.2573 19.2254V11.7441C91.2573 11.0929 91.2497 10.5221 91.2344 10.0318C91.219 9.53379 91.196 9.10858 91.1654 8.75616C91.1348 8.39608 91.0965 8.09346 91.0505 7.8483C91.0122 7.60313 90.97 7.40011 90.9241 7.23922V7.19325Z" fill="white"/>
<path id="Vector_46" d="M78.5698 22.7072C78.5698 22.5386 78.6005 22.3816 78.6618 22.236C78.7307 22.0828 78.8188 21.9525 78.9261 21.8453C79.041 21.7304 79.1712 21.6423 79.3168 21.581C79.47 21.512 79.6309 21.4775 79.7995 21.4775C79.9757 21.4775 80.1366 21.512 80.2821 21.581C80.4354 21.6423 80.5656 21.7304 80.6729 21.8453C80.7878 21.9525 80.8759 22.0828 80.9372 22.236C81.0061 22.3816 81.0406 22.5386 81.0406 22.7072C81.0406 23.0596 80.9218 23.3546 80.6843 23.5921C80.4468 23.8296 80.1519 23.9483 79.7995 23.9483C79.6309 23.9483 79.47 23.9138 79.3168 23.8449C79.1712 23.7836 79.041 23.6993 78.9261 23.5921C78.8188 23.4771 78.7307 23.3469 78.6618 23.2013C78.6005 23.0481 78.5698 22.8834 78.5698 22.7072Z" fill="white"/>
<path id="Vector_47" d="M69.9288 16.4441C69.9288 15.7929 69.9174 15.226 69.8944 14.7433C69.879 14.253 69.8561 13.8316 69.8254 13.4792C69.8024 13.1268 69.768 12.8318 69.722 12.5943C69.6837 12.3568 69.6415 12.1576 69.5956 11.9968V11.9508H72.2502V11.9968C72.1889 12.173 72.1353 12.3875 72.0893 12.6403C72.051 12.8931 72.0204 13.2187 71.9974 13.6171C72.2809 13.3796 72.5758 13.146 72.8823 12.9161C73.1887 12.6863 73.5029 12.4832 73.8246 12.307C74.1464 12.1308 74.472 11.9891 74.8014 11.8818C75.1385 11.7746 75.4756 11.7209 75.8127 11.7209C76.0196 11.7209 76.1996 11.7324 76.3529 11.7554C76.5061 11.7707 76.644 11.7976 76.7666 11.8359C76.8892 11.8665 77.0002 11.9048 77.0998 11.9508C77.1994 11.9891 77.2952 12.0274 77.3871 12.0657L76.824 14.2607L76.6287 14.2147C76.5367 13.8776 76.3644 13.6095 76.1115 13.4103C75.8587 13.2034 75.5139 13.1 75.0773 13.1C74.8398 13.1 74.5908 13.1421 74.3303 13.2264C74.0698 13.3107 73.8055 13.4294 73.5373 13.5826C73.2692 13.7282 73.001 13.9006 72.7329 14.0998C72.4647 14.2913 72.2043 14.4943 71.9514 14.7089C71.9361 14.931 71.9285 15.1724 71.9285 15.4329C71.9285 15.6933 71.9285 15.9691 71.9285 16.2603V19.2252C71.9285 19.8764 71.9361 20.4472 71.9514 20.9375C71.9668 21.4202 71.9897 21.8377 72.0204 22.1901C72.051 22.5426 72.0855 22.8375 72.1238 23.075C72.1621 23.3125 72.2043 23.5117 72.2502 23.6726V23.7186H69.5956V23.6726C69.6415 23.5117 69.6837 23.3125 69.722 23.075C69.768 22.8375 69.8024 22.5426 69.8254 22.1901C69.8561 21.8377 69.879 21.4202 69.8944 20.9375C69.9174 20.4472 69.9288 19.8764 69.9288 19.2252V16.4441Z" fill="white"/>
<path id="Vector_48" d="M55.5167 8.22753C55.5014 9.0856 55.4861 9.91685 55.4708 10.7213C55.4631 11.0661 55.4555 11.4185 55.4478 11.7786C55.4478 12.1386 55.444 12.4949 55.4363 12.8473C55.4363 13.1921 55.4325 13.5253 55.4248 13.8471C55.4248 14.1612 55.4248 14.4409 55.4248 14.686C55.4248 15.1993 55.4286 15.8199 55.4363 16.5477C55.444 17.2755 55.4516 18.0225 55.4593 18.7887C55.4746 19.5548 55.4938 20.2903 55.5167 20.9951C55.5397 21.7 55.5665 22.286 55.5972 22.7534C55.7044 22.7687 55.8462 22.7879 56.0224 22.8109C56.2063 22.8262 56.3978 22.8415 56.597 22.8568C56.7962 22.8645 56.9915 22.8721 57.1831 22.8798C57.3746 22.8875 57.5355 22.8913 57.6657 22.8913C58.202 22.8913 58.7498 22.8568 59.3091 22.7879C59.876 22.7113 60.42 22.5733 60.941 22.3742C61.4696 22.175 61.9637 21.903 62.4234 21.5582C62.8908 21.2058 63.2968 20.7538 63.6416 20.2022C63.994 19.6506 64.2698 18.9879 64.469 18.2141C64.6682 17.4326 64.7678 16.5132 64.7678 15.456C64.7678 14.2838 64.626 13.2419 64.3426 12.3302C64.0591 11.4108 63.6416 10.637 63.09 10.0088C62.546 9.38056 61.868 8.90556 61.0559 8.58378C60.2514 8.25435 59.3244 8.08963 58.2748 8.08963C58.068 8.08963 57.8343 8.09729 57.5738 8.11261C57.3133 8.12027 57.0528 8.13177 56.7924 8.14709C56.5395 8.15475 56.2982 8.17007 56.0684 8.19306C55.8462 8.20838 55.6623 8.21987 55.5167 8.22753ZM53 7.19325C53.1762 7.20092 53.3409 7.20858 53.4942 7.21624C53.6244 7.2239 53.7585 7.23156 53.8964 7.23922C54.0343 7.23922 54.1454 7.23922 54.2296 7.23922C54.3752 7.23922 54.6165 7.23156 54.9536 7.21624C55.2984 7.20092 55.6891 7.18559 56.1258 7.17027C56.5625 7.15495 57.0145 7.13962 57.4819 7.1243C57.9569 7.10898 58.4012 7.10132 58.8149 7.10132C59.9258 7.10132 60.9831 7.23922 61.9867 7.51503C62.9904 7.79084 63.8714 8.24285 64.6299 8.87108C65.3883 9.49931 65.9898 10.3229 66.4341 11.3419C66.8785 12.3608 67.1007 13.6134 67.1007 15.0997C67.1007 16.1647 66.9819 17.1223 66.7444 17.9727C66.5146 18.8231 66.189 19.5739 65.7676 20.2252C65.3462 20.8764 64.8406 21.4356 64.2506 21.903C63.6684 22.3627 63.021 22.7419 62.3085 23.0407C61.6037 23.3395 60.849 23.5578 60.0446 23.6957C59.2401 23.8336 58.4089 23.9026 57.5508 23.9026C57.2444 23.9026 56.8728 23.8911 56.4361 23.8681C56.0071 23.8528 55.5742 23.8336 55.1375 23.8107C54.7008 23.7877 54.2871 23.7647 53.8964 23.7417C53.5133 23.7264 53.2145 23.7187 53 23.7187V23.6727C53.046 23.5119 53.0881 23.3127 53.1264 23.0752C53.1724 22.8377 53.2107 22.5427 53.2413 22.1903C53.272 21.8379 53.295 21.4203 53.3103 20.9377C53.3256 20.4473 53.3333 19.8766 53.3333 19.2254V11.7441C53.3333 11.0929 53.3256 10.5221 53.3103 10.0318C53.295 9.53379 53.272 9.10858 53.2413 8.75616C53.2107 8.39608 53.1724 8.09346 53.1264 7.8483C53.0881 7.60313 53.046 7.40011 53 7.23922V7.19325Z" fill="white"/>
</g>
</g>
</svg>
