<svg width="33" height="35" viewBox="0 0 33 35" fill="none" xmlns="http://www.w3.org/2000/svg">
<g id="noun_Pie Chart_4196192 1" clip-path="url(#clip0_1_179)">
<g id="Group 2">
<g id="Group">
<path id="Vector" d="M9.33967 2.69273C9.30228 2.62059 9.27947 2.54179 9.27254 2.46082C9.26561 2.37986 9.2747 2.29833 9.2993 2.22088C9.32389 2.14343 9.3635 2.07159 9.41587 2.00946C9.46823 1.94732 9.53233 1.89611 9.60449 1.85876C11.8187 0.73277 14.2784 0.175537 16.7617 0.237293C19.2451 0.29905 21.674 0.977855 23.8295 2.21251C23.9002 2.25317 23.9622 2.30743 24.0118 2.37215C24.0615 2.43687 24.0978 2.51078 24.1187 2.58962C24.1396 2.66845 24.1447 2.75065 24.1337 2.83146C24.1227 2.91228 24.0958 2.99012 24.0546 3.06049L16.9335 15.2818C16.8792 15.3754 16.8012 15.453 16.7073 15.5069C16.6135 15.5608 16.5072 15.5891 16.3989 15.589H16.3832C16.2724 15.586 16.1643 15.5534 16.0703 15.4946C15.9763 15.4358 15.8997 15.3529 15.8486 15.2545L9.33967 2.69273ZM16.0169 18.8483V18.8471L9.50775 6.28529C9.43215 6.13986 9.30209 6.03024 9.14596 5.98037C8.98982 5.9305 8.8203 5.94442 8.67439 6.0191C6.93962 6.90861 5.3976 8.13195 4.13682 9.61893C2.87605 11.1059 1.92134 12.8272 1.3275 14.6841C0.733668 16.541 0.512391 18.4969 0.676372 20.4395C0.840354 22.3821 1.38637 24.2732 2.28307 26.0043C3.17978 27.7353 4.40952 29.2722 5.90172 30.5268C7.39392 31.7814 9.1192 32.729 10.9785 33.3151C12.8379 33.9012 14.7946 34.1143 16.7366 33.9423C18.6785 33.7702 20.5673 33.2164 22.2946 32.3125C22.4397 32.2365 22.5488 32.1062 22.5982 31.9501C22.6476 31.7939 22.6333 31.6246 22.5583 31.479L16.0169 18.8483ZM23.647 30.7218L23.6965 30.8209C23.7713 30.967 23.9002 31.0781 24.0557 31.1306C24.1195 31.1517 24.1869 31.1601 24.2539 31.1553C24.3519 31.1526 24.4485 31.1316 24.5388 31.0934C24.7643 30.9817 24.9834 30.8576 25.1953 30.7218C25.8253 30.3563 26.4258 29.9422 26.9913 29.4832H23.0029L23.647 30.7218ZM22.3588 28.2445H28.3414C28.7261 27.858 29.0821 27.4441 29.4066 27.0059H21.7147L22.3588 28.2445ZM21.083 25.7673H30.2861C30.5398 25.3696 30.7674 24.9558 30.9673 24.5286H20.4389L21.083 25.7673ZM19.7948 23.29H31.5123C31.6767 22.8856 31.8173 22.4721 31.9335 22.0513H19.1507L19.7948 23.29ZM18.5066 20.8127H32.2431C32.3174 20.4039 32.3794 19.9952 32.4165 19.574H17.8749L18.5066 20.8127ZM25.1457 5.15627C25.0762 5.11304 24.9982 5.08515 24.9171 5.07447C24.8359 5.06379 24.7534 5.07056 24.675 5.09434C24.5948 5.11266 24.5192 5.14744 24.4531 5.19648C24.387 5.24552 24.3319 5.30775 24.2911 5.37922L23.9566 5.949H26.3472C25.9612 5.66346 25.5601 5.39883 25.1457 5.15627ZM27.846 7.18764H23.2382L22.5198 8.42628H29.0227C28.6562 7.98967 28.2632 7.57601 27.846 7.18764ZM29.9516 9.66492H21.789L21.0706 10.9036H30.7072C30.4837 10.474 30.2313 10.0602 29.9516 9.66492ZM31.3018 12.1422H20.3522L19.6338 13.3808H31.7848C31.6475 12.9591 31.4863 12.5455 31.3018 12.1422ZM32.1317 14.6195H18.903L18.1846 15.8581H32.3546C32.3054 15.4411 32.231 15.0275 32.1317 14.6195ZM32.4785 17.0968H17.4661L17.1689 17.6046C17.1152 17.694 17.0858 17.796 17.0836 17.9002C17.0815 18.0045 17.1066 18.1076 17.1565 18.1992L17.2308 18.3354H32.5032C32.5156 18.2115 32.5156 18.0753 32.5156 17.9514C32.5156 17.6665 32.5032 17.3817 32.4785 17.0968Z" fill="white"/>
</g>
<path id="Ellipse 1" d="M9.05506 5.40689C8.82801 4.97667 8.29363 4.80987 7.8768 5.06066C4.57693 7.04602 2.11153 10.1819 0.968125 13.8808C-0.262244 17.8609 0.138882 22.1668 2.08326 25.8512C4.02764 29.5356 7.356 32.2966 11.3361 33.527C15.035 34.6704 19.0151 34.4048 22.5163 32.801C22.9586 32.5984 23.1225 32.0631 22.8954 31.6329L15.9752 18.5199L9.05506 5.40689Z" fill="white"/>
</g>
</g>
<defs>
<clipPath id="clip0_1_179">
<rect width="32.745" height="34.8351" fill="white" transform="translate(-0.0114746 -0.319336)"/>
</clipPath>
</defs>
</svg>
